<svg xmlns="http://www.w3.org/2000/svg" viewBox="0 0 500 500">
  <style>
    .st0{fill:#F5F7FA;}
    .st1{fill:#4A6CF7;}
    .st2{fill:#6A11CB;}
    .st3{fill:#FFFFFF;}
    .st4{fill:#E4E8F0;}
    @keyframes float {
      0% { transform: translateY(0px); }
      50% { transform: translateY(-10px); }
      100% { transform: translateY(0px); }
    }
    @keyframes spin {
      0% { transform: rotate(0deg); }
      100% { transform: rotate(360deg); }
    }
    @keyframes pulse {
      0% { transform: scale(1); }
      50% { transform: scale(1.05); }
      100% { transform: scale(1); }
    }
    .float { animation: float 6s ease-in-out infinite; }
    .spin { animation: spin 20s linear infinite; }
    .pulse { animation: pulse 4s ease-in-out infinite; }
  </style>
  
  <!-- Background -->
  <rect class="st0" width="500" height="500"/>
  
  <!-- Decorative elements -->
  <circle class="st1" cx="80" cy="80" r="20" opacity="0.3"/>
  <circle class="st2" cx="420" cy="120" r="15" opacity="0.2"/>
  <circle class="st1" cx="380" cy="380" r="25" opacity="0.2"/>
  <circle class="st2" cx="120" cy="420" r="10" opacity="0.3"/>
  
  <!-- Abstract shapes -->
  <g class="spin" transform="translate(250, 250)">
    <path d="M0,-100 L86.6,-50 L86.6,50 L0,100 L-86.6,50 L-86.6,-50 Z" fill="none" stroke="#6A11CB" stroke-width="2" opacity="0.2"/>
    <path d="M0,-80 L69.3,-40 L69.3,40 L0,80 L-69.3,40 L-69.3,-40 Z" fill="none" stroke="#4A6CF7" stroke-width="2" opacity="0.3"/>
    <path d="M0,-60 L52,-30 L52,30 L0,60 L-52,30 L-52,-30 Z" fill="none" stroke="#6A11CB" stroke-width="2" opacity="0.4"/>
  </g>
  
  <!-- Form illustration -->
  <g class="float">
    <rect class="st3" x="150" y="100" width="200" height="300" rx="10" ry="10" stroke="#E4E8F0" stroke-width="2"/>
    
    <!-- Form elements -->
    <rect class="st2" x="170" y="120" width="160" height="40" rx="5" ry="5" opacity="0.7"/>
    <rect class="st4" x="170" y="170" width="160" height="30" rx="5" ry="5"/>
    <rect class="st4" x="170" y="210" width="160" height="30" rx="5" ry="5"/>
    <rect class="st4" x="170" y="250" width="160" height="30" rx="5" ry="5"/>
    <rect class="st4" x="170" y="290" width="160" height="30" rx="5" ry="5"/>
    
    <rect class="st1" x="170" y="340" width="160" height="40" rx="5" ry="5" opacity="0.8"/>
    
    <!-- Checkmark animation -->
    <g class="pulse" transform="translate(250, 360)">
      <circle fill="#FFFFFF" cx="0" cy="0" r="10" opacity="0.8"/>
      <path d="M-5,0 L-2,3 L5,-4" fill="none" stroke="#FFFFFF" stroke-width="2" stroke-linecap="round" stroke-linejoin="round"/>
    </g>
  </g>
  
  <!-- Characters -->
  <g transform="translate(100, 250)">
    <circle class="st1" cx="0" cy="0" r="30" opacity="0.6"/>
    <circle class="st3" cx="-10" cy="-5" r="6"/>
    <circle class="st3" cx="10" cy="-5" r="6"/>
    <path d="M-15,10 Q0,25 15,10" fill="none" stroke="#FFFFFF" stroke-width="2"/>
  </g>
  
  <g transform="translate(400, 250)">
    <circle class="st2" cx="0" cy="0" r="30" opacity="0.6"/>
    <circle class="st3" cx="-10" cy="-5" r="6"/>
    <circle class="st3" cx="10" cy="-5" r="6"/>
    <path d="M-15,10 Q0,25 15,10" fill="none" stroke="#FFFFFF" stroke-width="2"/>
  </g>
  
  <!-- Connection lines -->
  <path d="M130,250 Q180,200 170,170" fill="none" stroke="#4A6CF7" stroke-width="2" stroke-dasharray="5,5"/>
  <path d="M370,250 Q320,200 330,170" fill="none" stroke="#6A11CB" stroke-width="2" stroke-dasharray="5,5"/>
</svg> 